<?xml version="1.0" encoding="UTF-8"?>
<svg version="1.1" xmlns="http://www.w3.org/2000/svg" width="868" height="287">
<path d="M0 0 C76.23 0 152.46 0 231 0 C231 0.99 231 1.98 231 3 C230.14664063 3.47566406 229.29328125 3.95132813 228.4140625 4.44140625 C218.63125043 9.9121019 208.92207508 15.50498017 199.22241211 21.12158203 C191.41631628 25.63157064 183.56519655 30.05399582 175.6875 34.4375 C163.13954847 41.37819972 163.13954847 41.37819972 151 49 C149.60007813 49.93972656 149.60007813 49.93972656 148.171875 50.8984375 C145.71036349 52.80234049 145.71036349 52.80234049 145.86425781 55.63134766 C145.9314502 56.80383057 145.9314502 56.80383057 146 58 C146.59828613 58.153479 147.19657227 58.30695801 147.81298828 58.46508789 C156.61161335 60.78837537 165.23035648 63.60667698 173.875 66.4375 C176.80942619 67.39597606 179.74445342 68.35259505 182.6796875 69.30859375 C183.38750366 69.53985962 184.09531982 69.77112549 184.82458496 70.00939941 C190.32195964 71.79896829 195.84514288 73.48280721 201.39208984 75.11303711 C205.3650192 76.46424965 209.04961425 78.0992285 211 82 C211.83259196 88.66073569 209.72851856 93.49943284 206 99 C203.40360229 101.87243999 200.73947197 104.51778562 197.9140625 107.1640625 C195.73762477 109.21786962 193.77934713 111.37740109 191.83740234 113.65380859 C187.97553787 118.09273401 183.87010007 122.23998723 179.6875 126.375 C178.5286731 127.52814697 178.5286731 127.52814697 177.34643555 128.70458984 C174.07623964 131.9585983 170.8000651 135.20656266 167.52441406 138.45507812 C165.11834715 140.84295352 162.71536962 143.23390793 160.3125 145.625 C159.58313232 146.34606934 158.85376465 147.06713867 158.10229492 147.81005859 C154.09558129 151.7978006 150.29373561 155.88970853 146.60366821 160.17147827 C144.36249327 162.72689282 141.99411767 165.10056719 139.57421875 167.48828125 C138.86372124 168.19309883 138.86372124 168.19309883 138.13887024 168.91215515 C136.65755861 170.38146703 135.17297781 171.84740111 133.6875 173.3125 C131.70932813 175.26401273 129.73455543 177.21887692 127.76171875 179.17578125 C126.4617395 180.45835815 126.4617395 180.45835815 125.13549805 181.7668457 C122.87034311 184.00581974 122.87034311 184.00581974 121 187 C108.33029613 186.22095672 108.33029613 186.22095672 103 184 C104.32483081 181.06470651 105.76144662 178.98962582 108.03759766 176.71948242 C108.65228912 176.10171432 109.26698059 175.48394623 109.90029907 174.84745789 C110.89711197 173.86142326 110.89711197 173.86142326 111.9140625 172.85546875 C112.60253265 172.16745682 113.29100281 171.47944489 114.00033569 170.77058411 C115.45895983 169.31497932 116.92001191 167.86180403 118.38330078 166.41088867 C120.60108772 164.21121696 122.81090877 162.00379113 125.01953125 159.79492188 C126.44224022 158.37713428 127.86540331 156.95980219 129.2890625 155.54296875 C129.94145905 154.89168503 130.59385559 154.24040131 131.26602173 153.56938171 C134.44919055 150.41826467 137.67822921 147.37983827 141.07666016 144.46118164 C144.82148518 141.22312102 148.16413681 137.74397528 151.484375 134.078125 C159.16744108 125.72498294 167.18623402 117.73345339 175.25 109.75 C178.00810856 107.01852758 180.76282129 104.28369233 183.515625 101.546875 C184.13947083 100.93132751 184.76331665 100.31578003 185.40606689 99.68157959 C185.98137146 99.10957825 186.55667603 98.5375769 187.14941406 97.94824219 C187.90547943 97.20003204 187.90547943 97.20003204 188.67681885 96.43670654 C190.89145134 94.03206453 191.95712304 92.39446807 192.3125 89.125 C190.31726662 84.37444434 186.61379875 83.71254956 181.9984436 81.80883789 C173.10889605 78.21093656 164.1646856 74.74821947 155.2199707 71.2902832 C152.34596316 70.17771035 149.47554245 69.05626851 146.60546875 67.93359375 C145.73037155 67.59806992 144.85527435 67.26254608 143.95365906 66.91685486 C138.91282665 64.93756191 133.90133372 62.90133372 130 59 C129.25401278 54.3002805 128.99396676 51.55389713 131.62109375 47.49609375 C136.44260727 42.00420936 141.91320364 37.43044111 147.71484375 33.0078125 C149.96441064 31.03126997 150.78203617 29.66349368 152 27 C144.25856805 28.84417532 137.32115189 31.43059881 130.1875 34.9375 C129.28580078 35.36740234 128.38410156 35.79730469 127.45507812 36.24023438 C123.65130557 38.0793291 119.97312721 39.91892513 116.48828125 42.31640625 C114 44 114 44 112 44 C112 44.66 112 45.32 112 46 C110.20559395 47.48564292 108.33323525 48.82398123 106.43359375 50.171875 C104.68486324 52.00636348 104.68486324 52.00636348 105.05078125 55 C106.75443195 60.38437752 111.24860875 62.40208168 116 65 C124.42781867 69.35334682 133.05225754 73.33555755 141.77734375 77.0546875 C142.5048584 77.36535156 143.23237305 77.67601562 143.98193359 77.99609375 C145.32560151 78.56370751 146.67338317 79.12172327 148.02587891 79.66796875 C151.76386432 81.23088948 154.46716882 82.80454551 157 86 C157.62956367 90.24955477 157.35686631 92.36273873 155.25 96.125 C154.13625 97.548125 154.13625 97.548125 153 99 C152.39414063 99.80050781 151.78828125 100.60101563 151.1640625 101.42578125 C148.98560856 104.01711906 146.7793291 105.96888784 144.125 108.0625 C139.65143394 111.64613103 135.27354627 115.31385351 130.9375 119.0625 C125.3910319 123.84100706 119.74566534 128.46218256 114 133 C112.22318259 134.4211401 110.44869909 135.84516864 108.67407227 137.26904297 C103.74367247 141.22412323 98.80265841 145.16337894 93.81982422 149.05224609 C85.07993918 155.87343554 76.53140541 162.92058314 68 170 C40.57105042 159.76312417 18.61757782 131.09263223 6.35546875 105.578125 C-2.40584853 85.97051872 -6.61135364 66.1924432 -6.4375 44.75 C-6.43578796 43.99562653 -6.43407593 43.24125305 -6.43231201 42.46401978 C-6.37519874 27.74414349 -4.66992961 14.00978884 0 0 Z " fill="#FBC103" transform="translate(6,99)"/>
<path d="M0 0 C1.54419953 0.03518388 3.08847687 0.06711037 4.6328125 0.09570312 C8.38184996 0.17211398 12.1279146 0.29249882 15.875 0.4375 C17.79186707 5.89283805 19.39390558 11.24901444 20.5 16.9375 C20.73976563 18.1440625 20.97953125 19.350625 21.2265625 20.59375 C27.41991423 57.30614823 19.24811311 95.78449611 -1.76171875 126.54003906 C-5.53788219 131.79583102 -9.82727916 136.60852365 -14.125 141.4375 C-15.19031744 142.72684393 -16.2533998 144.01804421 -17.3125 145.3125 C-20.55676801 149.09122834 -24.30619327 152.25647336 -28.125 155.4375 C-29.07375 156.241875 -30.0225 157.04625 -31 157.875 C-33.125 159.4375 -33.125 159.4375 -35.125 159.4375 C-35.125 160.0975 -35.125 160.7575 -35.125 161.4375 C-36.70703125 162.6550293 -36.70703125 162.6550293 -38.9375 164.01171875 C-39.75758545 164.5111499 -40.5776709 165.01058105 -41.42260742 165.52514648 C-42.76029175 166.31707397 -42.76029175 166.31707397 -44.125 167.125 C-45.03548096 167.66519775 -45.94596191 168.20539551 -46.8840332 168.76196289 C-59.86044161 176.33219643 -73.41856794 182.14655017 -88.125 185.4375 C-88.785 185.1075 -89.445 184.7775 -90.125 184.4375 C-85.32773137 178.39245695 -80.3988861 172.56695731 -75.125 166.9375 C-70.64575025 162.15441697 -66.44048163 157.22934535 -62.3359375 152.1171875 C-59.22136773 148.34228491 -55.89622774 144.77506991 -52.58203125 141.17578125 C-50.23123867 138.55589954 -48.01249541 135.87197781 -45.8125 133.125 C-42.25705135 128.71372655 -38.50467893 124.5602876 -34.625 120.4375 C-17.6362724 103.42453299 -17.6362724 103.42453299 -10.75 81.4296875 C-11.44303478 77.74794022 -13.43011432 75.90303371 -16.125 73.4375 C-22.0102949 70.38350914 -27.84803988 69.45360025 -34.3671875 68.5 C-35.44896271 68.3337915 -36.53073792 68.16758301 -37.64529419 67.99633789 C-41.09558837 67.46790523 -44.54763553 66.95221616 -48 66.4375 C-56.71054874 65.11854475 -65.4189653 63.78592154 -74.125 62.4375 C-75.02657837 62.29957031 -75.92815674 62.16164062 -76.85705566 62.01953125 C-79.24284563 61.65043101 -81.62550955 61.26588683 -84.0078125 60.875 C-85.30348145 60.66746094 -86.59915039 60.45992187 -87.93408203 60.24609375 C-91.11289115 59.44056844 -92.8300767 58.75410651 -95.125 56.4375 C-95.875 53.125 -95.875 53.125 -95.125 49.4375 C-90.40174818 44.72491531 -84.22381823 41.74981643 -78.3125 38.8125 C-69.0797675 34.08184266 -60.38114807 28.72570826 -51.68164062 23.08642578 C-48.92821652 21.31058292 -46.16118777 19.55756941 -43.390625 17.80859375 C-42.42036377 17.19532227 -41.45010254 16.58205078 -40.45043945 15.95019531 C-38.58757133 14.77285132 -36.72416676 13.5963555 -34.86010742 12.42089844 C-33.99748291 11.87336914 -33.1348584 11.32583984 -32.24609375 10.76171875 C-30.95590332 9.95528931 -30.95590332 9.95528931 -29.63964844 9.13256836 C-27.09322577 7.48800632 -27.09322577 7.48800632 -24.85253906 5.47875977 C-17.16344307 -0.95293332 -9.47693082 -0.37789567 0 0 Z " fill="#FBC104" transform="translate(265.125,98.5625)"/>
<path d="M0 0 C0.72516815 0.00182281 1.4503363 0.00364563 2.19747925 0.00552368 C23.04783756 0.0936622 41.62469066 4.05620704 60.8125 12.3125 C60.8125 12.9725 60.8125 13.6325 60.8125 14.3125 C59.73613281 14.41046875 58.65976563 14.5084375 57.55078125 14.609375 C37.52046482 16.58101929 37.52046482 16.58101929 21.8125 28.3125 C17.80989637 34.46725735 15.65980376 41.25369701 13.8125 48.3125 C13.11769531 48.15394531 12.42289063 47.99539062 11.70703125 47.83203125 C4.33686598 46.50918107 -3.87454153 45.94222299 -10.48046875 49.93359375 C-17.08249423 55.26658001 -19.71793011 62.40987637 -22.1875 70.3125 C-23.12851563 70.26609375 -24.06953125 70.2196875 -25.0390625 70.171875 C-32.60456268 69.88593543 -32.60456268 69.88593543 -39.8125 71.8125 C-44.23494133 76.4677014 -45.93641605 81.05708025 -47.1875 87.3125 C-75.2375 87.3125 -103.2875 87.3125 -132.1875 87.3125 C-121.58199043 55.4959713 -93.38763222 29.41174155 -64.1875 14.3125 C-55.73186362 10.19244021 -46.9760313 7.07320961 -37.9375 4.5 C-37.25373291 4.30494873 -36.56996582 4.10989746 -35.86547852 3.90893555 C-24.01344607 0.73785593 -12.20486714 -0.06378637 0 0 Z " fill="#FBC104" transform="translate(143.1875,-0.3125)"/>
<path d="M0 0 C6.93 0 13.86 0 21 0 C21.99 2.97 22.98 5.94 24 9 C28.20236382 18.60673414 32.87227409 27.21810422 40 35 C40.66386719 35.76699219 41.32773437 36.53398437 42.01171875 37.32421875 C58.06425338 54.80100784 82.9087192 59.83137039 105.67578125 60.94140625 C110.76881777 61.05778423 115.84880184 60.90034889 120.9375 60.6875 C121.80149414 60.65301758 122.66548828 60.61853516 123.55566406 60.58300781 C133.54267084 60.13436671 133.54267084 60.13436671 142.5 56.25 C146.62490219 50.06264671 145.18608195 41.01786787 145.18530273 33.83276367 C145.18749026 31.57256258 145.20568291 29.31284943 145.22460938 27.05273438 C145.22754391 25.59895998 145.2295283 24.1451833 145.23046875 22.69140625 C145.23457764 21.38373291 145.23868652 20.07605957 145.24291992 18.72875977 C144.94241388 14.11606753 144.48662883 9.65180982 141.3125 6.125 C138.25480212 4.6374713 135.36404401 4.32346577 132 4 C132 3.01 132 2.02 132 1 C148.5 1 165 1 182 1 C182 1.99 182 2.98 182 4 C178.37 4.66 174.74 5.32 171 6 C169.31253327 11.88493 168.69233541 17.14337658 168.69921875 23.25 C168.69279106 24.53632324 168.69279106 24.53632324 168.68623352 25.84863281 C168.68052517 27.65038169 168.67996397 29.45215361 168.68432617 31.25390625 C168.68749144 33.99259057 168.66396517 36.73019837 168.63867188 39.46875 C168.63639886 41.22916532 168.6356954 42.98958351 168.63671875 44.75 C168.62290413 45.96284668 168.62290413 45.96284668 168.60881042 47.20019531 C168.653525 52.75940622 169.6474296 56.93877167 172 62 C174.41134071 63.57134515 174.41134071 63.57134515 177.1875 64 C178.08855469 64.20625 178.98960937 64.4125 179.91796875 64.625 C180.94857422 64.810625 180.94857422 64.810625 182 65 C182 65.66 182 66.32 182 67 C169.82863537 67.09333771 157.65735812 67.16408489 145.48570633 67.20724869 C139.83181217 67.22798182 134.17816572 67.25603348 128.52441406 67.30175781 C123.05192436 67.34573115 117.57967048 67.36924391 112.10701752 67.37950897 C110.03577724 67.38680915 107.96454751 67.40105941 105.89340973 67.42292023 C76.91339322 67.7161913 52.95090802 61.29741357 30 43 C28.86111328 42.12988281 28.86111328 42.12988281 27.69921875 41.2421875 C15.27446723 31.11158571 6.12272621 16.66864618 0 2 C0 1.34 0 0.68 0 0 Z " fill="#FAC108" transform="translate(340,172)"/>
<path d="M0 0 C7.59 0 15.18 0 23 0 C23.02578125 2.77148438 23.0515625 5.54296875 23.078125 8.3984375 C23.11664812 11.11256633 23.16177505 13.82651173 23.20751953 16.54052734 C23.23557016 18.41218154 23.25686302 20.28395069 23.27099609 22.15576172 C22.84797561 38.03594167 22.84797561 38.03594167 29.63989258 51.80395508 C39.70442444 60.35529256 53.16935878 59.50183637 65.59716797 59.44604492 C68.49388365 59.437518 71.3886335 59.46639759 74.28515625 59.49804688 C85.32814067 59.54139508 94.43057537 59.13032389 104.01953125 53.1015625 C111.70484801 44.94633485 112.81388235 31.67505881 114 21 C114.99 21 115.98 21 117 21 C117 36.18 117 51.36 117 67 C73.77 67 30.54 67 -14 67 C-14 66.34 -14 65.68 -14 65 C-13.31292969 64.85304688 -12.62585938 64.70609375 -11.91796875 64.5546875 C-11.01691406 64.33039063 -10.11585938 64.10609375 -9.1875 63.875 C-8.29417969 63.66617188 -7.40085937 63.45734375 -6.48046875 63.2421875 C-2.84816484 61.42317547 -2.4183443 59.83657104 -1 56 C-0.5300958 51.72390313 -0.51128836 47.46296582 -0.48828125 43.1640625 C-0.47033005 41.92957367 -0.45237885 40.69508484 -0.43388367 39.42318726 C-0.37981569 35.49049263 -0.34589498 31.55791917 -0.3125 27.625 C-0.28095535 24.95438118 -0.24483421 22.28384861 -0.20898438 19.61328125 C-0.12409063 13.07560828 -0.05726182 6.53797103 0 0 Z " fill="#FAC107" transform="translate(569,172)"/>
<path d="M0 0 C1.57007813 0.22429688 1.57007813 0.22429688 3.171875 0.453125 C7.99205136 3.08957505 8.76325761 8.10163168 10.375 13.125 C10.72949219 14.16527344 11.08398438 15.20554687 11.44921875 16.27734375 C12.32088312 18.84521987 13.16991916 21.41844224 14 24 C12.68 24.33 11.36 24.66 10 25 C8.8553125 23.515 8.8553125 23.515 7.6875 22 C-5.51936722 6.73052182 -27.22559744 -1.37762659 -46.95068359 -2.89794922 C-68.92606954 -3.99226794 -89.48145422 2.13330879 -106 17 C-106.67289062 17.56847656 -107.34578125 18.13695313 -108.0390625 18.72265625 C-124.35857251 33.51424401 -130.43422803 55.31973872 -135 76 C-143.25 76 -151.5 76 -160 76 C-155.70476283 49.72325498 -141.75481177 26.16751243 -119.9375 10.4375 C-83.406754 -14.3962888 -40.62753622 -13.79272015 0 0 Z " fill="#F9C10A" transform="translate(495,57)"/>
<path d="M0 0 C17.16 0 34.32 0 52 0 C52 0.99 52 1.98 52 3 C51.22914063 3.18175781 50.45828125 3.36351562 49.6640625 3.55078125 C48.66117188 3.80214844 47.65828125 4.05351563 46.625 4.3125 C45.62726562 4.55613281 44.62953125 4.79976562 43.6015625 5.05078125 C40.6915014 5.82193858 40.6915014 5.82193858 39 9 C38.66912177 12.29781034 38.66912177 12.29781034 38.68115234 16.13354492 C38.66608391 17.21684837 38.66608391 17.21684837 38.65071106 18.32203674 C38.61983061 20.70817268 38.60283066 23.09419617 38.5859375 25.48046875 C38.56722974 27.13528921 38.54765662 28.7901001 38.5272522 30.44490051 C38.47588351 34.79973713 38.43628322 39.15460469 38.39910889 43.50958252 C38.35909888 47.95373214 38.30799286 52.39775251 38.2578125 56.84179688 C38.16099707 65.56111624 38.07763581 74.28048874 38 83 C30.41 83 22.82 83 15 83 C14.98018066 80.88062012 14.96036133 78.76124023 14.93994141 76.57763672 C14.872948 69.56469274 14.79530981 62.55189546 14.71247292 55.53912163 C14.66258861 51.28848389 14.61625804 47.03787006 14.578125 42.78710938 C14.54117261 38.68267527 14.49478597 34.57844506 14.44193649 30.47418594 C14.42344533 28.91059074 14.408318 27.34695191 14.39665604 25.78329086 C14.37970277 23.58822633 14.35064707 21.39362337 14.31884766 19.19873047 C14.30552399 17.95074677 14.29220032 16.70276306 14.2784729 15.41696167 C13.99425173 11.92946666 13.40859201 9.20093994 12 6 C9.17093303 4.62836947 9.17093303 4.62836947 5.875 4.125 C4.77929688 3.90070312 3.68359375 3.67640625 2.5546875 3.4453125 C1.71164062 3.29835937 0.86859375 3.15140625 0 3 C0 2.01 0 1.02 0 0 Z " fill="#FAC107" transform="translate(554,50)"/>
<path d="M0 0 C0.81065918 0.1446167 1.62131836 0.2892334 2.45654297 0.43823242 C7.97919833 1.60483301 7.97919833 1.60483301 10.3671875 4.24609375 C12.11837418 8.64695179 13.73131551 13.07619822 15.25 17.5625 C15.57033203 18.49384766 15.89066406 19.42519531 16.22070312 20.38476562 C17.00639722 22.67148724 17.7868152 24.95986781 18.5625 27.25 C14.5625 27.25 14.5625 27.25 13.02734375 25.78125 C12.52332031 25.1109375 12.01929688 24.440625 11.5 23.75 C2.71080655 13.15789507 -8.82517261 7.4191336 -22.30078125 5.50390625 C-33.93983749 4.56176596 -45.70284903 6.51148065 -55.3125 13.4375 C-63.25301552 20.19844619 -67.54124643 28.62631221 -68.75390625 38.94140625 C-69.12563427 47.37123838 -66.84903105 54.49084866 -62.3125 61.5625 C-54.99420678 68.40351323 -46.10469916 71.76328431 -36.75 74.9375 C-34.57877397 75.68952323 -32.40818229 76.44338088 -30.23828125 77.19921875 C-29.23490723 77.54774902 -28.2315332 77.8962793 -27.19775391 78.25537109 C-23.87340025 79.4532675 -20.65818165 80.79861986 -17.4375 82.25 C-17.4375 82.58 -17.4375 82.91 -17.4375 83.25 C-24.57156995 83.52954034 -31.70422444 83.72178069 -38.8425293 83.85424805 C-41.26884726 83.9094763 -43.69480056 83.98447975 -46.11987305 84.07983398 C-66.27188035 84.85221057 -66.27188035 84.85221057 -71.53710938 80.95678711 C-73.42675874 78.0447271 -74.47793189 75.57477829 -75.4375 72.25 C-76.22872796 70.3123208 -77.02033888 68.37479789 -77.8125 66.4375 C-81.92029846 52.62035971 -81.39162081 37.36830545 -74.8125 24.375 C-66.60354868 10.94217056 -55.95348185 2.80410234 -40.6953125 -1.03515625 C-39.08269531 -1.38900391 -39.08269531 -1.38900391 -37.4375 -1.75 C-36.31988281 -1.99556641 -36.31988281 -1.99556641 -35.1796875 -2.24609375 C-23.75787381 -4.06014651 -11.25005536 -2.17244683 0 0 Z " fill="#F9C10D" transform="translate(812.4375,49.75)"/>
<path d="M0 0 C6.27 0 12.54 0 19 0 C21.65877662 15.95265974 20.2663559 31.4133823 11 45 C8.21179948 48.57582779 5.23477964 51.82482267 2 55 C1.32324219 55.67289063 0.64648438 56.34578125 -0.05078125 57.0390625 C-12.17045961 67.76646142 -30.41565712 67.15795341 -45.66015625 67.09765625 C-47.05976816 67.09578737 -48.45938073 67.09436569 -49.85899353 67.09336853 C-53.51347716 67.08958036 -57.16792 67.0797824 -60.8223877 67.06866455 C-64.56322671 67.05837016 -68.30407262 67.05379874 -72.04492188 67.04882812 C-79.36331707 67.03868903 -86.6816008 67.01910809 -94 67 C-94 48.85 -94 30.7 -94 12 C-93.01 12 -92.02 12 -91 12 C-90.90203125 13.17175781 -90.8040625 14.34351563 -90.703125 15.55078125 C-89.47713554 28.93117319 -87.58336154 40.74761641 -77.48046875 50.4609375 C-63.92722703 61.34310238 -43.25904695 59.93235472 -27 59 C-22.34383951 58.40933608 -18.22368998 57.05114143 -14 55 C-13.09636719 54.57589844 -12.19273437 54.15179688 -11.26171875 53.71484375 C-2.74084681 49.18300223 3.07856029 42.01176241 6.3359375 32.93359375 C8.44379023 23.62184432 8.2674345 14.34202495 3.2890625 6.015625 C2.86367188 5.35046875 2.43828125 4.6853125 2 4 C1.01 2.02 1.01 2.02 0 0 Z " fill="#F9C10A" transform="translate(821,172)"/>
<path d="M0 0 C2.27024968 -0.08097324 4.54132075 -0.13917704 6.8125 -0.1875 C8.07707031 -0.22230469 9.34164063 -0.25710937 10.64453125 -0.29296875 C14 0 14 0 15.96875 1.3125 C17 3 17 3 16.6875 6.1875 C16.460625 7.115625 16.23375 8.04375 16 9 C15.34 9 14.68 9 14 9 C14.495 10.11375 14.99 11.2275 15.5 12.375 C17 16 17 16 17 18 C17.99 18 18.98 18 20 18 C20 18.66 20 19.32 20 20 C18.02 20 16.04 20 14 20 C13.74605469 19.43410156 13.49210937 18.86820313 13.23046875 18.28515625 C12.88628906 17.55167969 12.54210937 16.81820312 12.1875 16.0625 C11.85105469 15.33160156 11.51460938 14.60070312 11.16796875 13.84765625 C10.06399866 11.66970511 10.06399866 11.66970511 7 11 C7 12.98 7 14.96 7 17 C7.66 17.33 8.32 17.66 9 18 C9 18.66 9 19.32 9 20 C6.03 20 3.06 20 0 20 C0 19.34 0 18.68 0 18 C0.66 17.67 1.32 17.34 2 17 C2.05398987 14.72942623 2.09278742 12.45848712 2.125 10.1875 C2.14820313 8.92292969 2.17140625 7.65835938 2.1953125 6.35546875 C2.27581918 2.8661976 2.27581918 2.8661976 0 0 Z M8 1 C7.01 1.495 7.01 1.495 6 2 C6 4.31 6 6.62 6 9 C7.98 8.67 9.96 8.34 12 8 C12.33 6.35 12.66 4.7 13 3 C10.60931266 1.89363605 10.60931266 1.89363605 8 1 Z " fill="#F3C027" transform="translate(422,143)"/>
<path d="M0 0 C3.02182284 2.05741129 4.69011377 3.49949825 5.4453125 7.15625 C5.65056702 11.26134032 5.33688603 13.46098235 3.125 17 C-0.14232756 20.07513182 -2.46112721 20.36380268 -6.9609375 20.265625 C-10.4234274 19.81457268 -11.8291679 18.69709442 -14 16 C-15.52569901 11.27033308 -15.51219023 8.04335047 -13.3125 3.5625 C-9.01446956 -1.20018238 -6.31174891 -1.66098656 0 0 Z M-8.6875 2.5625 C-10.43931676 5.81587399 -10.87261458 8.30582293 -11 12 C-9.50973696 16.32377796 -9.50973696 16.32377796 -6.0625 19.0625 C-3.18788012 18.97539031 -2.04173396 17.97132934 0 16 C1.20190901 12.39427296 1.32670315 9.7897565 1 6 C-0.59027387 3.01054456 -0.59027387 3.01054456 -3 1 C-6.89412558 0.54706131 -6.89412558 0.54706131 -8.6875 2.5625 Z " fill="#EEC239" transform="translate(688,143)"/>
<path d="M0 0 C5.28 0 10.56 0 16 0 C16.33 1.65 16.66 3.3 17 5 C16.46375 4.690625 15.9275 4.38125 15.375 4.0625 C12.6015043 2.82172561 9.99957163 2.4090325 7 2 C6.67 4.31 6.34 6.62 6 9 C7.32 8.67 8.64 8.34 10 8 C10 7.34 10 6.68 10 6 C10.66 6 11.32 6 12 6 C12 8.31 12 10.62 12 13 C11.34 13 10.68 13 10 13 C9.67 12.34 9.34 11.68 9 11 C8.01 10.67 7.02 10.34 6 10 C6.33 12.31 6.66 14.62 7 17 C11.21900957 17.4361141 11.21900957 17.4361141 14.75 15.5 C15.1625 15.005 15.575 14.51 16 14 C16.66 14 17.32 14 18 14 C17.67 15.98 17.34 17.96 17 20 C11.06 20 5.12 20 -1 20 C-1 19.34 -1 18.68 -1 18 C-0.01 18 0.98 18 2 18 C2 12.72 2 7.44 2 2 C1.34 2 0.68 2 0 2 C0 1.34 0 0.68 0 0 Z " fill="#F2C43A" transform="translate(488,143)"/>
<path d="M0 0 C0.99 0 1.98 0 3 0 C3.33 2.31 3.66 4.62 4 7 C3.34 7 2.68 7 2 7 C0.375 5 0.375 5 -1 3 C-2.32 3.33 -3.64 3.66 -5 4 C-5 4.66 -5 5.32 -5 6 C-4.44570313 6.26554688 -3.89140625 6.53109375 -3.3203125 6.8046875 C-2.23363281 7.33449219 -2.23363281 7.33449219 -1.125 7.875 C-0.04605469 8.39707031 -0.04605469 8.39707031 1.0546875 8.9296875 C3 10 3 10 5 12 C5.375 14.9375 5.375 14.9375 5 18 C2.81194139 20.16789217 1.50128613 20.94303567 -1.578125 21.29296875 C-2.45984375 21.25816406 -3.3415625 21.22335938 -4.25 21.1875 C-5.14203125 21.16042969 -6.0340625 21.13335937 -6.953125 21.10546875 C-7.62859375 21.07066406 -8.3040625 21.03585938 -9 21 C-9 18.69 -9 16.38 -9 14 C-7 14 -7 14 -4.375 16.5 C-3.59125 17.325 -2.8075 18.15 -2 19 C-1.01 18.67 -0.02 18.34 1 18 C0.80642793 16.04448116 0.80642793 16.04448116 0 14 C-1.82179307 12.87219774 -1.82179307 12.87219774 -4 12.125 C-7.84681599 10.36764161 -7.84681599 10.36764161 -9.25 7 C-9 4 -9 4 -7.375 1.625 C-4.58592172 -0.28331672 -3.30808016 -0.33929027 0 0 Z " fill="#F2C22C" transform="translate(817,142)"/>
<path d="M0 0 C2.10388569 -0.05402274 4.20816714 -0.09280256 6.3125 -0.125 C8.07013672 -0.15980469 8.07013672 -0.15980469 9.86328125 -0.1953125 C13 0 13 0 16 2 C16.5 4.9375 16.5 4.9375 16 8 C13.3477144 10.27338765 11.67098964 10.95526736 8.1875 11.1875 C7.465625 11.125625 6.74375 11.06375 6 11 C6 13.31 6 15.62 6 18 C6.66 18 7.32 18 8 18 C8 18.66 8 19.32 8 20 C5.36 20 2.72 20 0 20 C0 19.34 0 18.68 0 18 C0.66 18 1.32 18 2 18 C1.85946128 15.37461716 1.71281053 12.74982573 1.5625 10.125 C1.50352539 9.00544922 1.50352539 9.00544922 1.44335938 7.86328125 C1.28426376 3.80013136 1.28426376 3.80013136 0 0 Z M7 1 C5.58422523 2.18424326 5.58422523 2.18424326 5.9375 5.5625 C5.958125 6.696875 5.97875 7.83125 6 9 C7.66611905 9.042721 9.33382885 9.04063832 11 9 C12.29633621 7.93354885 12.29633621 7.93354885 12.0625 5.4375 C12.041875 4.633125 12.02125 3.82875 12 3 C9.525 2.01 9.525 2.01 7 1 Z " fill="#EFC02E" transform="translate(359,143)"/>
<path d="M0 0 C0.91007813 0.10183594 1.82015625 0.20367187 2.7578125 0.30859375 C3.45648437 0.39238281 4.15515625 0.47617188 4.875 0.5625 C4.875 2.8725 4.875 5.1825 4.875 7.5625 C3.988125 6.716875 3.10125 5.87125 2.1875 5 C-0.12936732 3.07749307 -0.77168673 2.57855969 -3.875 2.4375 C-6.26195502 3.39841238 -6.26195502 3.39841238 -7.5 5.625 C-8.33898929 9.56824968 -7.79782647 12.59282383 -7.125 16.5625 C-3.13822664 17.2931539 -3.13822664 17.2931539 0.875 17.5625 C2.90477977 16.29030266 2.90477977 16.29030266 3.875 14.5625 C4.535 14.8925 5.195 15.2225 5.875 15.5625 C3.11821307 18.90405992 1.74345178 20.43843546 -2.625 21.0625 C-6.30850462 20.53628505 -8.23446187 19.8749305 -11.125 17.5625 C-13.48128 13.78599644 -13.3216925 10.98431754 -12.7421875 6.6875 C-11.80168014 3.44929744 -9.96072522 2.22243672 -7.125 0.5625 C-4.50184968 -0.74907516 -2.89466564 -0.33399988 0 0 Z " fill="#F1C43D" transform="translate(565.125,142.4375)"/>
<path d="M0 0 C1.15177734 0.02255859 2.30355469 0.04511719 3.49023438 0.06835938 C6.30737749 0.12680633 9.12172564 0.20868529 11.9375 0.3125 C11.2775 1.6325 10.6175 2.9525 9.9375 4.3125 C4.3275 4.3125 -1.2825 4.3125 -7.0625 4.3125 C-7.0625 4.9725 -7.0625 5.6325 -7.0625 6.3125 C-10.3625 6.3125 -13.6625 6.3125 -17.0625 6.3125 C-17.0625 6.9725 -17.0625 7.6325 -17.0625 8.3125 C-18.3825 8.3125 -19.7025 8.3125 -21.0625 8.3125 C-21.3925 7.3225 -21.7225 6.3325 -22.0625 5.3125 C-14.80998352 0.11034723 -8.75023295 -0.32819685 0 0 Z " fill="#FBC005" transform="translate(783.0625,48.6875)"/>
<path d="M0 0 C2.97 0 5.94 0 9 0 C8.01 1.485 8.01 1.485 7 3 C6.75729175 6.43307165 6.75729175 6.43307165 6.875 10.1875 C6.90207031 12.09595703 6.90207031 12.09595703 6.9296875 14.04296875 C6.95289063 15.01878906 6.97609375 15.99460938 7 17 C9.97 17 12.94 17 16 17 C16.05398987 14.72942623 16.09278742 12.45848712 16.125 10.1875 C16.14820313 8.92292969 16.17140625 7.65835938 16.1953125 6.35546875 C16.27581918 2.8661976 16.27581918 2.8661976 14 0 C16.31 0 18.62 0 21 0 C21 0.66 21 1.32 21 2 C20.34 2 19.68 2 19 2 C19.05220703 3.21236328 19.05220703 3.21236328 19.10546875 4.44921875 C19.13253906 5.51785156 19.15960937 6.58648437 19.1875 7.6875 C19.23970703 9.27111328 19.23970703 9.27111328 19.29296875 10.88671875 C18.93762557 14.66283227 17.69949058 17.30050942 15 20 C13.0390625 20.16796875 13.0390625 20.16796875 10.625 20.1875 C9.83351563 20.20167969 9.04203125 20.21585938 8.2265625 20.23046875 C6 20 6 20 3 18 C2.55859375 14.8828125 2.55859375 14.8828125 2.4375 11.125 C2.27824072 6.5016549 2.10426017 4.20852035 0 0 Z " fill="#F6C015" transform="translate(740,143)"/>
<path d="M0 0 C4.52615993 3.67832017 8.39424999 7.41086363 12 12 C11.01 12 10.02 12 9 12 C8.67 12.99 8.34 13.98 8 15 C7.67 15 7.34 15 7 15 C7.33 15.99 7.66 16.98 8 18 C8.66 18 9.32 18 10 18 C10.33 18.66 10.66 19.32 11 20 C12.423125 20.2165625 12.423125 20.2165625 13.875 20.4375 C17.10144555 21.0182602 18.12232727 21.3921212 20 24 C20 24.66 20 25.32 20 26 C9.19878201 22.70850458 -3.61950106 15.57074842 -10 6 C-8.35 6 -6.7 6 -5 6 C-4.67 7.65 -4.34 9.3 -4 11 C-1.36 11.33 1.28 11.66 4 12 C3.566875 10.700625 3.566875 10.700625 3.125 9.375 C2.08333333 6.25 1.04166667 3.125 0 0 Z " fill="#F6C012" transform="translate(377,205)"/>
<path d="M0 0 C16.5 0 33 0 50 0 C50 0.99 50 1.98 50 3 C46.7 3.66 43.4 4.32 40 5 C40 4.01 40 3.02 40 2 C37.2291017 1.97303991 34.4584655 1.95318048 31.6875 1.9375 C30.90181641 1.92912109 30.11613281 1.92074219 29.30664062 1.91210938 C28.1706543 1.90727539 28.1706543 1.90727539 27.01171875 1.90234375 C26.31522217 1.89710693 25.61872559 1.89187012 24.90112305 1.88647461 C22.77502032 1.93104009 22.77502032 1.93104009 20 3 C20 2.34 20 1.68 20 1 C15.545 1.495 15.545 1.495 11 2 C11.66 3.32 12.32 4.64 13 6 C12.67 6.99 12.34 7.98 12 9 C10.9790625 7.7934375 10.9790625 7.7934375 9.9375 6.5625 C6.51522698 3.57711289 4.4571874 3.26218749 0 3 C0 2.01 0 1.02 0 0 Z " fill="#FAC31F" transform="translate(472,173)"/>
<path d="M0 0 C0.33 0 0.66 0 1 0 C0.99333817 0.54599854 0.98667633 1.09199707 0.97981262 1.65454102 C0.91316236 7.36517415 0.86807687 13.07569578 0.83520508 18.78662109 C0.82016924 20.91459648 0.79973517 23.04254114 0.77368164 25.17041016 C0.73706911 28.23868417 0.72022119 31.30654649 0.70703125 34.375 C0.69154739 35.31802979 0.67606354 36.26105957 0.66011047 37.23266602 C0.65861465 43.17606332 1.42481942 47.60994423 4 53 C6.41134071 54.57134515 6.41134071 54.57134515 9.1875 55 C10.08855469 55.20625 10.98960937 55.4125 11.91796875 55.625 C12.60503906 55.74875 13.29210937 55.8725 14 56 C14 56.66 14 57.32 14 58 C11.36 58 8.72 58 6 58 C6 57.34 6 56.68 6 56 C4.02 55.67 2.04 55.34 0 55 C0.33 53.35 0.66 51.7 1 50 C0.34 50 -0.32 50 -1 50 C-1.02529479 43.20069165 -1.04284349 36.40139537 -1.05493164 29.60205078 C-1.05996943 27.28759304 -1.06679981 24.9731385 -1.07543945 22.65869141 C-1.08752924 19.3375571 -1.09323375 16.01646475 -1.09765625 12.6953125 C-1.10281754 11.65569366 -1.10797882 10.61607483 -1.11329651 9.54495239 C-1.11337204 8.58410736 -1.11344757 7.62326233 -1.11352539 6.63330078 C-1.115746 5.78502716 -1.11796661 4.93675354 -1.12025452 4.06277466 C-1 2 -1 2 0 0 Z " fill="#F2C228" transform="translate(508,181)"/>
<path d="M0 0 C6.93 0 13.86 0 21 0 C21.66 1.32 22.32 2.64 23 4 C15.08 4 7.16 4 -1 4 C-0.67 2.68 -0.34 1.36 0 0 Z " fill="#FCC005" transform="translate(432,49)"/>
<path d="M0 0 C2.97 0 5.94 0 9 0 C8.67 0.66 8.34 1.32 8 2 C7.34 2 6.68 2 6 2 C6.11341491 4.48020497 6.24014686 6.95844969 6.375 9.4375 C6.4059375 10.14455078 6.436875 10.85160156 6.46875 11.58007812 C6.57280629 13.39239188 6.77919892 15.19817988 7 17 C7.66 17.33 8.32 17.66 9 18 C9 18.66 9 19.32 9 20 C6.03 20 3.06 20 0 20 C0 19.34 0 18.68 0 18 C0.66 17.67 1.32 17.34 2 17 C2.05441656 15.10448978 2.09298035 13.2085208 2.125 11.3125 C2.14820313 10.25675781 2.17140625 9.20101562 2.1953125 8.11328125 C1.99858729 4.97748141 1.33057654 2.82354627 0 0 Z " fill="#F1C124" transform="translate(617,143)"/>
<path d="M0 0 C4.1297768 0.62480018 7.40293116 1.99997284 11.125 3.875 C12.67574219 4.64457031 12.67574219 4.64457031 14.2578125 5.4296875 C16.65675469 6.80344072 18.32881208 7.8223915 20 10 C20.56949053 14.3118569 20.28779351 16.47403255 18.1875 20.3125 C16 23 16 23 13 25 C13.309375 24.401875 13.61875 23.80375 13.9375 23.1875 C15.10209704 20.91043228 15.10209704 20.91043228 16 18 C16.66 18 17.32 18 18 18 C18.33 15.69 18.66 13.38 19 11 C18.01 11 17.02 11 16 11 C16 10.01 16 9.02 16 8 C11.545 8.495 11.545 8.495 7 9 C4 4.25 4 4.25 4 2 C2.68 2 1.36 2 0 2 C0 1.34 0 0.68 0 0 Z " fill="#F3C122" transform="translate(143,175)"/>
<path d="M0 0 C6.93 0.495 6.93 0.495 14 1 C14 1.33 14 1.66 14 2 C15.134375 2.28875 16.26875 2.5775 17.4375 2.875 C18.613125 3.24625 19.78875 3.6175 21 4 C21.33 4.66 21.66 5.32 22 6 C21.67 6.99 21.34 7.98 21 9 C20.01 9 19.02 9 18 9 C17.67 8.01 17.34 7.02 17 6 C15.02 6.66 13.04 7.32 11 8 C11 7.01 11 6.02 11 5 C10.0925 5.04125 9.185 5.0825 8.25 5.125 C5.09931762 5.00381991 3.54596259 4.7916033 1 3 C0.67 2.01 0.34 1.02 0 0 Z " fill="#FAC203" transform="translate(457,50)"/>
<path d="M0 0 C1.32 0 2.64 0 4 0 C3.125 7.75 3.125 7.75 2 10 C1.30777344 9.83886719 0.61554688 9.67773438 -0.09765625 9.51171875 C-3.25933426 8.95427619 -6.22778278 8.83140293 -9.4375 8.8125 C-11.07525391 8.79123047 -11.07525391 8.79123047 -12.74609375 8.76953125 C-16.13335377 9.00944522 -18.83858571 9.79360812 -22 11 C-21.67 10.01 -21.34 9.02 -21 8 C-17.828262 6.414131 -14.36486178 6.62133555 -10.875 6.4375 C-10.12089844 6.39431641 -9.36679688 6.35113281 -8.58984375 6.30664062 C-6.72678112 6.2005168 -4.86341476 6.09974999 -3 6 C-2.87625 5.38125 -2.7525 4.7625 -2.625 4.125 C-2 2 -2 2 0 0 Z " fill="#F6C21C" transform="translate(155,38)"/>
<path d="M0 0 C0 4.04936242 -1.53326518 5.18781827 -4.125 8.25 C-4.94613281 9.22839844 -5.76726562 10.20679688 -6.61328125 11.21484375 C-8.97528108 13.97115452 -11.35400496 16.71220021 -13.73828125 19.44921875 C-15.21064241 21.19901813 -15.21064241 21.19901813 -17 24.125 C-19.34020163 27.48903985 -21.77001428 29.50410195 -25 32 C-25.66 31.67 -26.32 31.34 -27 31 C-26.45472656 30.40574219 -25.90945312 29.81148438 -25.34765625 29.19921875 C-21.27614316 24.72403427 -17.30526067 20.20456389 -13.5 15.5 C-9.18250335 10.16214258 -4.64075322 5.05765303 0 0 Z " fill="#F1C32B" transform="translate(219,232)"/>
<path d="M0 0 C0.33 0.99 0.66 1.98 1 3 C0.34 3.66 -0.32 4.32 -1 5 C-2.134375 4.835 -3.26875 4.67 -4.4375 4.5 C-8.09622069 3.58389695 -8.09622069 3.58389695 -11 6 C-11.33 5.34 -11.66 4.68 -12 4 C-12.33 4.99 -12.66 5.98 -13 7 C-15.0625 7.6875 -15.0625 7.6875 -17 8 C-17.33 6.68 -17.66 5.36 -18 4 C-11.95147606 0.0252557 -7.04052137 -0.11933087 0 0 Z " fill="#FBBF03" transform="translate(423,51)"/>
<path d="M0 0 C6.27 0 12.54 0 19 0 C19.78926177 4.73557065 20.13465519 8.74964626 20.125 13.5 C20.12886719 15.40265625 20.12886719 15.40265625 20.1328125 17.34375 C20.0123121 20.66105518 19.6326624 23.74630764 19 27 C18.67 27 18.34 27 18 27 C18 18.42 18 9.84 18 1 C13.05 1 8.1 1 3 1 C2.67 1.99 2.34 2.98 2 4 C1.34 2.68 0.68 1.36 0 0 Z " fill="#F0C037" transform="translate(821,172)"/>
<path d="M0 0 C2.04650391 3.06975587 2.99704565 5.69084152 4.125 9.1875 C4.47820313 10.27417969 4.83140625 11.36085938 5.1953125 12.48046875 C5.46085938 13.31191406 5.72640625 14.14335938 6 15 C2 15 2 15 0.1484375 13.35546875 C-0.72941406 12.28232422 -0.72941406 12.28232422 -1.625 11.1875 C-2.21539063 10.47980469 -2.80578125 9.77210937 -3.4140625 9.04296875 C-4.67889279 7.41364303 -5.85585128 5.71622308 -7 4 C-4.03 4.495 -4.03 4.495 -1 5 C-0.67 3.35 -0.34 1.7 0 0 Z " fill="#F3BE19" transform="translate(825,62)"/>
<path d="M0 0 C2.31 0 4.62 0 7 0 C7 0.66 7 1.32 7 2 C6.34 2 5.68 2 5 2 C5.03480469 2.80824219 5.06960938 3.61648437 5.10546875 4.44921875 C5.13253906 5.51785156 5.15960937 6.58648437 5.1875 7.6875 C5.22230469 8.74324219 5.25710938 9.79898438 5.29296875 10.88671875 C4.93762557 14.66283227 3.69949058 17.30050942 1 20 C-0.51928038 20.07179964 -2.04167482 20.08392007 -3.5625 20.0625 C-4.38878906 20.05347656 -5.21507812 20.04445312 -6.06640625 20.03515625 C-7.02353516 20.01775391 -7.02353516 20.01775391 -8 20 C-4.55549263 17.70366176 -2.06187717 17.45983515 2 17 C2.05398987 14.72942623 2.09278742 12.45848712 2.125 10.1875 C2.14820313 8.92292969 2.17140625 7.65835938 2.1953125 6.35546875 C2.27581918 2.8661976 2.27581918 2.8661976 0 0 Z " fill="#EBCC68" transform="translate(754,143)"/>
<path d="M0 0 C0.66 0.99 1.32 1.98 2 3 C-1.75 7.875 -1.75 7.875 -4 9 C-4.65213292 11.02463255 -4.65213292 11.02463255 -5 13 C-5.66 13 -6.32 13 -7 13 C-7.19335938 13.63808594 -7.38671875 14.27617188 -7.5859375 14.93359375 C-7.97652344 16.17302734 -7.97652344 16.17302734 -8.375 17.4375 C-8.63023437 18.26121094 -8.88546875 19.08492187 -9.1484375 19.93359375 C-10 22 -10 22 -12 23 C-12.33 23.99 -12.66 24.98 -13 26 C-13.66 26 -14.32 26 -15 26 C-12.33430089 16.13691329 -6.46561279 7.74725793 0 0 Z " fill="#F3C123" transform="translate(356,86)"/>
<path d="M0 0 C0.9075 0.309375 1.815 0.61875 2.75 0.9375 C5.16563338 1.7272263 7.52780285 2.42949297 10 3 C10.33 2.01 10.66 1.02 11 0 C12.32 3.96 13.64 7.92 15 12 C9.84627756 10.96925551 9.2509077 10.55119297 6.26953125 6.6328125 C4.38083971 4.20366462 2.20500808 2.14200785 0 0 Z " fill="#F3C01D" transform="translate(494,70)"/>
<path d="M0 0 C3.3 0 6.6 0 10 0 C10 0.66 10 1.32 10 2 C10.99 2.33 11.98 2.66 13 3 C11.875 4.5 11.875 4.5 10 6 C5.16584428 6.6445541 2.17438766 5.38536438 -2 3 C-1.34 2.67 -0.68 2.34 0 2 C0 1.34 0 0.68 0 0 Z " fill="#FBC004" transform="translate(413,231)"/>
<path d="M0 0 C0.66 2.31 1.32 4.62 2 7 C1.34 7.66 0.68 8.32 0 9 C-1.98 8.34 -3.96 7.68 -6 7 C-6 5.68 -6 4.36 -6 3 C-6.66 3 -7.32 3 -8 3 C-8 2.34 -8 1.68 -8 1 C-5.29120665 -0.35439668 -2.99066732 -0.06501451 0 0 Z " fill="#FAC103" transform="translate(811,51)"/>
<path d="M0 0 C0.33 0 0.66 0 1 0 C1 7.26 1 14.52 1 22 C0.67 20.68 0.34 19.36 0 18 C-0.99 18 -1.98 18 -3 18 C-3.144375 18.928125 -3.28875 19.85625 -3.4375 20.8125 C-4 24 -4 24 -5 27 C-5.66 27 -6.32 27 -7 27 C-6.57781184 25.3501725 -6.13675575 23.70516335 -5.6875 22.0625 C-5.44386719 21.14597656 -5.20023438 20.22945312 -4.94921875 19.28515625 C-4.47935547 18.15400391 -4.47935547 18.15400391 -4 17 C-3.01 16.67 -2.02 16.34 -1 16 C-0.67 10.72 -0.34 5.44 0 0 Z " fill="#F3BF19" transform="translate(684,194)"/>
<path d="M0 0 C0.66 0 1.32 0 2 0 C2 0.66 2 1.32 2 2 C5.46969834 3.58614781 8.1737606 4.50345255 12 4 C13.81476003 2.60414215 13.81476003 2.60414215 15 1 C15.66 1.33 16.32 1.66 17 2 C14.24321307 5.34155992 12.86845178 6.87593546 8.5 7.5 C4.84157442 6.97736777 2.81455101 6.38810389 0 4 C0 2.68 0 1.36 0 0 Z " fill="#F0C225" transform="translate(554,156)"/>
<path d="M0 0 C0.66 0 1.32 0 2 0 C2.59332061 4.37573952 3.13827236 8.57528444 3 13 C1.68 12.67 0.36 12.34 -1 12 C-1.2226746 10.56465159 -1.42761906 9.12654475 -1.625 7.6875 C-1.74101563 6.88699219 -1.85703125 6.08648437 -1.9765625 5.26171875 C-2 3 -2 3 0 0 Z " fill="#EDBE2E" transform="translate(675,147)"/>
<path d="M0 0 C0.66 0.66 1.32 1.32 2 2 C2.66 1.34 3.32 0.68 4 0 C7.625 0.375 7.625 0.375 11 1 C7.90538257 3.06307829 5.03333405 4.24271634 1.5625 5.5625 C-0.13712891 6.21412109 -0.13712891 6.21412109 -1.87109375 6.87890625 C-4.25297022 7.73233764 -6.53424459 8.46080533 -9 9 C-7.8125 6.5 -7.8125 6.5 -6 4 C-3.3125 3.6875 -3.3125 3.6875 -1 4 C-0.67 2.68 -0.34 1.36 0 0 Z " fill="#F4C019" transform="translate(411,54)"/>
<path d="M0 0 C0.66 0.33 1.32 0.66 2 1 C0.44233138 2.44273385 -1.12135957 3.87896708 -2.6875 5.3125 C-3.99267578 6.51326172 -3.99267578 6.51326172 -5.32421875 7.73828125 C-7.78170312 9.81548337 -10.19503316 11.43831576 -13 13 C-13 11.02 -13 9.04 -13 7 C-11.0625 6.4375 -11.0625 6.4375 -9 6 C-8.67 6.33 -8.34 6.66 -8 7 C-7.67 6.34 -7.34 5.68 -7 5 C-6.34 5 -5.68 5 -5 5 C-5 4.34 -5 3.68 -5 3 C-2.625 1.3125 -2.625 1.3125 0 0 Z " fill="#F6C418" transform="translate(150,204)"/>
<path d="M0 0 C0.99 0 1.98 0 3 0 C3.33 5.28 3.66 10.56 4 16 C2.68 15.67 1.36 15.34 0 15 C0 10.05 0 5.1 0 0 Z " fill="#F6C421" transform="translate(727,184)"/>
<path d="M0 0 C0.33 2.31 0.66 4.62 1 7 C-2.64793184 8.27253436 -6.1936543 9.32829194 -10 10 C-9.06409496 8.8944811 -8.12620142 7.79064547 -7.1875 6.6875 C-6.66542969 6.07261719 -6.14335937 5.45773437 -5.60546875 4.82421875 C-1.35974304 0 -1.35974304 0 0 0 Z " fill="#F9C727" transform="translate(135,256)"/>
<path d="M0 0 C0.66 0 1.32 0 2 0 C1.67 1.98 1.34 3.96 1 6 C-4.94 6 -10.88 6 -17 6 C-17 5.34 -17 4.68 -17 4 C-16.02417969 3.96261719 -15.04835938 3.92523438 -14.04296875 3.88671875 C-12.13451172 3.78810547 -12.13451172 3.78810547 -10.1875 3.6875 C-8.29064453 3.60048828 -8.29064453 3.60048828 -6.35546875 3.51171875 C-2.88046571 2.98177067 -2.11622676 2.62243383 0 0 Z " fill="#EECB52" transform="translate(504,157)"/>
<path d="M0 0 C2 0 2 0 4.625 2.5 C5.40875 3.325 6.1925 4.15 7 5 C7.598125 4.649375 8.19625 4.29875 8.8125 3.9375 C11 3 11 3 14 4 C10.85408067 6.80045623 8.932936 7.35261589 4.75 7.1875 C3.85796875 7.16042969 2.9659375 7.13335937 2.046875 7.10546875 C1.03367187 7.05326172 1.03367187 7.05326172 0 7 C0 4.69 0 2.38 0 0 Z " fill="#EFC341" transform="translate(808,156)"/>
<path d="M0 0 C0.33 0 0.66 0 1 0 C0.979375 1.2375 0.95875 2.475 0.9375 3.75 C0.93233319 6.6640825 1.06984442 9.20953327 2 12 C1.34 12 0.68 12 0 12 C0 11.34 0 10.68 0 10 C-0.66 10 -1.32 10 -2 10 C-2.33 10.66 -2.66 11.32 -3 12 C-4.35439668 9.29120665 -4.06501451 6.99066732 -4 4 C-3.01 3.67 -2.02 3.34 -1 3 C-0.67 2.01 -0.34 1.02 0 0 Z " fill="#F4C121" transform="translate(556,146)"/>
<path d="M0 0 C1.33332095 2.6666419 0.67102033 4.16680303 0 7 C0.99 6.67 1.98 6.34 3 6 C3.66 4.68 4.32 3.36 5 2 C5 5.63 5 9.26 5 13 C1 12 1 12 -1 10 C-1.23046875 7.87109375 -1.23046875 7.87109375 -1.1875 5.4375 C-1.18105469 4.63183594 -1.17460937 3.82617188 -1.16796875 2.99609375 C-1 1 -1 1 0 0 Z " fill="#F3C319" transform="translate(137,148)"/>
<path d="M0 0 C1 3 1 3 0 6 C-0.66 6 -1.32 6 -2 6 C-2 6.66 -2 7.32 -2 8 C-3.98 8 -5.96 8 -8 8 C-8.33 7.34 -8.66 6.68 -9 6 C-8.01 5.34 -7.02 4.68 -6 4 C-5.319375 3.484375 -4.63875 2.96875 -3.9375 2.4375 C-2 1 -2 1 0 0 Z " fill="#FAC102" transform="translate(811,227)"/>
<path d="M0 0 C0 0.66 0 1.32 0 2 C-0.99 2.66 -1.98 3.32 -3 4 C-3.72382467 6.05925139 -3.72382467 6.05925139 -4 8 C-5.32 8.33 -6.64 8.66 -8 9 C-8 8.34 -8 7.68 -8 7 C-9.65 7.33 -11.3 7.66 -13 8 C-10.83676753 5.68757908 -8.62352196 3.9843604 -5.9375 2.3125 C-5.24527344 1.87550781 -4.55304688 1.43851562 -3.83984375 0.98828125 C-2 0 -2 0 0 0 Z " fill="#F5C214" transform="translate(210,125)"/>
<path d="M0 0 C5.52677733 -0.19392201 9.75614911 0.2520497 15 2 C15.12375 2.61875 15.2475 3.2375 15.375 3.875 C15.87197356 6.19120832 15.87197356 6.19120832 18 8 C15 8 15 8 12.9375 6.1875 C8.94837896 3.21687795 4.77055525 2.22274426 0 1 C0 0.67 0 0.34 0 0 Z " fill="#F6C425" transform="translate(237,167)"/>
<path d="M0 0 C0.33 0 0.66 0 1 0 C1.33 4.29 1.66 8.58 2 13 C2.33 11.02 2.66 9.04 3 7 C3.33 7 3.66 7 4 7 C4 9.31 4 11.62 4 14 C4.66 14 5.32 14 6 14 C6 14.66 6 15.32 6 16 C3.36 16 0.72 16 -2 16 C-2 15.34 -2 14.68 -2 14 C-1.34 14 -0.68 14 0 14 C0 9.38 0 4.76 0 0 Z " fill="#EEC543" transform="translate(361,147)"/>
<path d="M0 0 C0 0.66 0 1.32 0 2 C-1.98 2.33 -3.96 2.66 -6 3 C-6 3.66 -6 4.32 -6 5 C-7.2684375 4.7525 -7.2684375 4.7525 -8.5625 4.5 C-12.09138856 3.98670712 -15.43932689 3.92878654 -19 4 C-16.05075061 2.37893452 -13.36193006 1.51556732 -10.0625 0.875 C-8.81146484 0.62363281 -8.81146484 0.62363281 -7.53515625 0.3671875 C-4.98541981 -0.00211177 -2.57240933 -0.06442528 0 0 Z " fill="#F5C120" transform="translate(125,1)"/>
<path d="M0 0 C1.125 3.75 1.125 3.75 0 6 C0.00572852 7.35479543 0.05341719 8.70958486 0.125 10.0625 C0.20753865 15.14688081 -1.13868395 19.3134721 -3 24 C-3.33 24 -3.66 24 -4 24 C-3.64838839 15.58557044 -2.90830856 7.93840199 0 0 Z " fill="#F5C327" transform="translate(736,78)"/>
<path d="M0 0 C1.32 0.33 2.64 0.66 4 1 C4 1.66 4 2.32 4 3 C3.34 3 2.68 3 2 3 C1.67 5.31 1.34 7.62 1 10 C-0.32 10 -1.64 10 -3 10 C-3.20086443 6.28400809 -3.1519437 5.22791555 -1 2 C-0.67 1.34 -0.34 0.68 0 0 Z " fill="#FBC004" transform="translate(824,214)"/>
<path d="M0 0 C3.63 0.33 7.26 0.66 11 1 C13 6 13 6 12 9 C10.9790625 7.7934375 10.9790625 7.7934375 9.9375 6.5625 C6.51522698 3.57711289 4.4571874 3.26218749 0 3 C0 2.01 0 1.02 0 0 Z " fill="#F3C527" transform="translate(472,173)"/>
<path d="M0 0 C0.33 0 0.66 0 1 0 C1 5.61 1 11.22 1 17 C-0.32 17.33 -1.64 17.66 -3 18 C-2.67 17.34 -2.34 16.68 -2 16 C-1.79439193 13.66977522 -1.63400048 11.33543702 -1.5 9 C-1.11111111 2.22222222 -1.11111111 2.22222222 0 0 Z " fill="#F7C110" transform="translate(492,144)"/>
<path d="M0 0 C1 3 1 3 0 6 C-0.66 6 -1.32 6 -2 6 C-2.2475 6.639375 -2.495 7.27875 -2.75 7.9375 C-4 10 -4 10 -6.125 10.75 C-7.053125 10.87375 -7.053125 10.87375 -8 11 C-8 11.66 -8 12.32 -8 13 C-8.66 12.67 -9.32 12.34 -10 12 C-9.52949219 11.46890625 -9.05898437 10.9378125 -8.57421875 10.390625 C-7.95160156 9.68421875 -7.32898438 8.9778125 -6.6875 8.25 C-6.07261719 7.55390625 -5.45773438 6.8578125 -4.82421875 6.140625 C-3.12685266 4.14885494 -1.54522191 2.11101085 0 0 Z " fill="#F1C22D" transform="translate(191,264)"/>
<path d="M0 0 C2.97 0.99 5.94 1.98 9 3 C9 3.66 9 4.32 9 5 C0.585 5.495 0.585 5.495 -8 6 C-4.00889681 4.0044484 -2.30013434 3.80453935 2 4 C1.34 2.68 0.68 1.36 0 0 Z " fill="#EFC831" transform="translate(195,9)"/>
<path d="M0 0 C1.60031344 3.20062687 0.03173691 5.72271806 -1 9 C-1.99 9 -2.98 9 -4 9 C-5.33981486 9.3062434 -6.67511887 9.63451555 -8 10 C-6.34908222 5.70761377 -3.26245434 3.1206085 0 0 Z " fill="#F1C41E" transform="translate(230,220)"/>
<path d="M0 0 C2.86134241 3.46273075 5.36574534 7.00686276 7.75 10.8125 C8.36359375 11.78832031 8.9771875 12.76414063 9.609375 13.76953125 C10.06828125 14.50558594 10.5271875 15.24164063 11 16 C10.34 16.33 9.68 16.66 9 17 C9 16.34 9 15.68 9 15 C8.34 15 7.68 15 7 15 C6.34 13.68 5.68 12.36 5 11 C4.34 11 3.68 11 3 11 C0 4.5 0 4.5 0 0 Z " fill="#F2C02D" transform="translate(366,188)"/>
<path d="M0 0 C0.99 0.66 1.98 1.32 3 2 C1.515 4.475 1.515 4.475 0 7 C-0.99 6.67 -1.98 6.34 -3 6 C-3.103125 6.61875 -3.20625 7.2375 -3.3125 7.875 C-4 10 -4 10 -7 12 C-5.44298069 7.32894208 -2.91552627 3.91294315 0 0 Z " fill="#F6C123" transform="translate(28,57)"/>
<path d="M0 0 C0.75 1.75 0.75 1.75 1 4 C-0.6875 6.25 -0.6875 6.25 -3 8 C-4.32 8 -5.64 8 -7 8 C-7 8.66 -7 9.32 -7 10 C-8.98 10 -10.96 10 -13 10 C-11.26499032 8.84332688 -9.52528126 7.69351492 -7.7734375 6.5625 C-6.98195313 6.046875 -6.19046875 5.53125 -5.375 5 C-4.57835937 4.484375 -3.78171875 3.96875 -2.9609375 3.4375 C-0.88065803 2.14211467 -0.88065803 2.14211467 0 0 Z " fill="#F5BD20" transform="translate(676,221)"/>
<path d="M0 0 C2.0859151 0.42502027 4.16867991 0.86552046 6.25 1.3125 C7.41015625 1.55613281 8.5703125 1.79976562 9.765625 2.05078125 C12.85368022 2.95705833 14.61523474 3.8926703 17 6 C15.35 6 13.7 6 12 6 C12 5.34 12 4.68 12 4 C8.04 4 4.08 4 0 4 C0 2.68 0 1.36 0 0 Z " fill="#F6BD24" transform="translate(195,171)"/>
<path d="M0 0 C0.33 0.66 0.66 1.32 1 2 C1.66 2.33 2.32 2.66 3 3 C-2.445 5.475 -2.445 5.475 -8 8 C-8 7.34 -8 6.68 -8 6 C-7.34 6 -6.68 6 -6 6 C-5.938125 5.38125 -5.87625 4.7625 -5.8125 4.125 C-5 2 -5 2 -2.4375 0.75 C-1.633125 0.5025 -0.82875 0.255 0 0 Z " fill="#F4C122" transform="translate(137,129)"/>
<path d="M0 0 C1 3 1 3 -0.43359375 6.35546875 C-1.09148807 7.6380304 -1.75989743 8.91524057 -2.4375 10.1875 C-2.77587891 10.84169922 -3.11425781 11.49589844 -3.46289062 12.16992188 C-4.29969098 13.78459299 -5.14869746 15.39292763 -6 17 C-6.33 15.68 -6.66 14.36 -7 13 C-6.34 13 -5.68 13 -5 13 C-5.0928125 11.8553125 -5.0928125 11.8553125 -5.1875 10.6875 C-4.96125194 7.44461116 -4.30238001 7.12527385 -2 5 C-0.80972016 2.40084462 -0.80972016 2.40084462 0 0 Z " fill="#F0C228" transform="translate(838,200)"/>
<path d="M0 0 C2.56451085 1.09907608 4.09554946 2.0984449 6.0625 4.125 C7.90993327 6.34771071 7.90993327 6.34771071 11 6 C12.25664978 8.90600261 13 10.79604584 13 14 C10.83031809 11.85714108 8.66416525 9.71091768 6.5 7.5625 C5.87996094 6.95083984 5.25992188 6.33917969 4.62109375 5.70898438 C4.03457031 5.12568359 3.44804688 4.54238281 2.84375 3.94140625 C2.02680664 3.13231812 2.02680664 3.13231812 1.19335938 2.30688477 C0 1 0 1 0 0 Z " fill="#ECC236" transform="translate(34,237)"/>
<path d="M0 0 C0.78375 0.04125 1.5675 0.0825 2.375 0.125 C2.375 0.785 2.375 1.445 2.375 2.125 C3.365 2.455 4.355 2.785 5.375 3.125 C3.5625 4.6875 3.5625 4.6875 1.375 6.125 C0.385 5.795 -0.605 5.465 -1.625 5.125 C-1.625 4.465 -1.625 3.805 -1.625 3.125 C-2.615 2.795 -3.605 2.465 -4.625 2.125 C-2.625 0.125 -2.625 0.125 0 0 Z " fill="#FAC001" transform="translate(404.625,226.875)"/>
<path d="M0 0 C0.33 0 0.66 0 1 0 C1.12375 0.969375 1.2475 1.93875 1.375 2.9375 C1.58125 3.948125 1.7875 4.95875 2 6 C2.66 6.33 3.32 6.66 4 7 C4 7.66 4 8.32 4 9 C1.03 9 -1.94 9 -5 9 C-5 8.34 -5 7.68 -5 7 C-4.360625 6.54625 -3.72125 6.0925 -3.0625 5.625 C-0.7323843 3.78915127 -0.39598702 2.87090587 0 0 Z " fill="#ECC43B" transform="translate(427,154)"/>
<path d="M0 0 C0 0.66 0 1.32 0 2 C-3 4 -3 4 -5 5 C-5.33 5.99 -5.66 6.98 -6 8 C-7.98 8 -9.96 8 -12 8 C-4.43243243 0 -4.43243243 0 0 0 Z " fill="#F3C11F" transform="translate(384,63)"/>
<path d="M0 0 C0.33 0 0.66 0 1 0 C1.33 4.62 1.66 9.24 2 14 C2.66 14 3.32 14 4 14 C4 14.66 4 15.32 4 16 C2.35 16 0.7 16 -1 16 C-1.33 15.01 -1.66 14.02 -2 13 C-1.34 13 -0.68 13 0 13 C0 8.71 0 4.42 0 0 Z " fill="#F5C32B" transform="translate(745,146)"/>
<path d="M0 0 C1.0828125 0.804375 1.0828125 0.804375 2.1875 1.625 C4.93706631 3.35911051 4.93706631 3.35911051 7.8125 2.1875 C8.534375 1.795625 9.25625 1.40375 10 1 C10.33 1.99 10.66 2.98 11 4 C7.82975235 5.58512383 4.45332972 5.42372144 1 5 C-1 3.5 -1 3.5 -2 2 C-1.34 2 -0.68 2 0 2 C0 1.34 0 0.68 0 0 Z " fill="#EAC74E" transform="translate(678,158)"/>
<path d="M0 0 C0.66 0 1.32 0 2 0 C2.77916092 5.02125926 3.13016601 8.97703996 2 14 C0 12 0 12 -0.1953125 9.1796875 C-0.17210937 8.08914062 -0.14890625 6.99859375 -0.125 5.875 C-0.10695313 4.77929688 -0.08890625 3.68359375 -0.0703125 2.5546875 C-0.04710937 1.71164063 -0.02390625 0.86859375 0 0 Z " fill="#FAC114" transform="translate(425,146)"/>
<path d="M0 0 C0.99 0 1.98 0 3 0 C3 1.32 3 2.64 3 4 C4.92022703 5.77409808 4.92022703 5.77409808 7 7 C5.35 6.67 3.7 6.34 2 6 C2 6.66 2 7.32 2 8 C1.34 8 0.68 8 0 8 C-1.125 2.25 -1.125 2.25 0 0 Z " fill="#F2C230" transform="translate(809,144)"/>
<path d="M0 0 C0 4.71428571 0 4.71428571 -1 7 C-4.20883825 8.95320589 -6.2205439 10 -10 10 C-9.52949219 9.61328125 -9.05898437 9.2265625 -8.57421875 8.828125 C-5.3182388 6.10469664 -2.34546467 3.58718126 0 0 Z " fill="#F4C427" transform="translate(159,126)"/>
<path d="M0 0 C0 3.38023517 -0.87455622 5.83468937 -2 9 C-2.66 9 -3.32 9 -4 9 C-4.33 10.65 -4.66 12.3 -5 14 C-5.66 14 -6.32 14 -7 14 C-5.53967505 8.68972746 -3.01679014 4.53669968 0 0 Z " fill="#EFC327" transform="translate(20,69)"/>
<path d="M0 0 C1.6065676 0.25620684 3.2102483 0.53055871 4.8125 0.8125 C6.15248047 1.03873047 6.15248047 1.03873047 7.51953125 1.26953125 C10.20531974 2.06046424 11.32213322 2.78699962 13 5 C13 5.66 13 6.32 13 7 C8.1725201 5.58707905 4.2837641 3.57025846 0 1 C0 0.67 0 0.34 0 0 Z " fill="#F1C131" transform="translate(384,224)"/>
<path d="M0 0 C0.33 0.99 0.66 1.98 1 3 C0.2884375 3.6496875 0.2884375 3.6496875 -0.4375 4.3125 C-2.23686957 6.02309613 -2.23686957 6.02309613 -3 9 C-4.98 9.33 -6.96 9.66 -9 10 C-8.06409496 8.8944811 -7.12620142 7.79064547 -6.1875 6.6875 C-5.66542969 6.07261719 -5.14335937 5.45773438 -4.60546875 4.82421875 C-3.12827531 3.14575321 -1.59960869 1.56117966 0 0 Z " fill="#F4C12C" transform="translate(185,205)"/>
<path d="M0 0 C1.32 0.33 2.64 0.66 4 1 C3.24074219 1.48210937 2.48148438 1.96421875 1.69921875 2.4609375 C0.70535156 3.09257812 -0.28851563 3.72421875 -1.3125 4.375 C-2.29863281 5.00148437 -3.28476563 5.62796875 -4.30078125 6.2734375 C-6.21287929 7.49651613 -8.1114034 8.7409356 -10 10 C-9.67 8.35 -9.34 6.7 -9 5 C-8.43410156 4.89042969 -7.86820313 4.78085938 -7.28515625 4.66796875 C-6.18494141 4.43013672 -6.18494141 4.43013672 -5.0625 4.1875 C-4.33160156 4.03667969 -3.60070312 3.88585937 -2.84765625 3.73046875 C-2.23792969 3.48941406 -1.62820312 3.24835938 -1 3 C-0.67 2.01 -0.34 1.02 0 0 Z " fill="#EFC32D" transform="translate(161,142)"/>
<path d="M0 0 C0.66 0.33 1.32 0.66 2 1 C0.75 3 0.75 3 -1 5 C-2.32 5 -3.64 5 -5 5 C-5 5.66 -5 6.32 -5 7 C-6.98 7.66 -8.96 8.32 -11 9 C-7.56638098 5.36440339 -4.2026393 2.63886654 0 0 Z " fill="#F1C428" transform="translate(68,20)"/>
<path d="M0 0 C3.3125 0.1875 3.3125 0.1875 7 1 C9.58172823 4.09807387 10.43505063 7.04535442 11 11 C10.34 10.67 9.68 10.34 9 10 C8.375 6.9375 8.375 6.9375 8 4 C5.36 3.34 2.72 2.68 0 2 C0 1.34 0 0.68 0 0 Z " fill="#EDBF33" transform="translate(814,51)"/>
<path d="M0 0 C0 0.66 0 1.32 0 2 C-2.25 3.5 -2.25 3.5 -5 5 C-6.0209375 5.61875 -6.0209375 5.61875 -7.0625 6.25 C-9.46130339 7.17856905 -10.5831079 6.70346132 -13 6 C-11.21118264 4.99491199 -9.41885304 3.99607264 -7.625 3 C-6.62726563 2.443125 -5.62953125 1.88625 -4.6015625 1.3125 C-2 0 -2 0 0 0 Z " fill="#F2C323" transform="translate(83,13)"/>
<path d="M0 0 C1.65 0 3.3 0 5 0 C5.0825 0.78375 5.165 1.5675 5.25 2.375 C5.71525923 5.14044802 5.71525923 5.14044802 8 6.1875 C8.66 6.455625 9.32 6.72375 10 7 C10.33 7.66 10.66 8.32 11 9 C8.03469503 7.64199529 5.70868729 6.07571737 3.25 3.9375 C2.63640625 3.41027344 2.0228125 2.88304687 1.390625 2.33984375 C0.93171875 1.89769531 0.4728125 1.45554688 0 1 C0 0.67 0 0.34 0 0 Z " fill="#F3C029" transform="translate(367,211)"/>
<path d="M0 0 C1.65 0 3.3 0 5 0 C2.11861791 2.24107496 -0.74679343 4.33168894 -4 6 C-4.99 5.67 -5.98 5.34 -7 5 C-7 4.34 -7 3.68 -7 3 C-3.535 2.505 -3.535 2.505 0 2 C0 1.34 0 0.68 0 0 Z " fill="#F6C223" transform="translate(201,119)"/>
<path d="M0 0 C0.33 0.99 0.66 1.98 1 3 C0.67 3.66 0.34 4.32 0 5 C-0.66 5 -1.32 5 -2 5 C-2 5.66 -2 6.32 -2 7 C-3.65 6.67 -5.3 6.34 -7 6 C-4.74259377 3.66475218 -2.7194239 1.81294927 0 0 Z " fill="#F4C11B" transform="translate(239,105)"/>
<path d="M0 0 C2.97 0 5.94 0 9 0 C9 0.66 9 1.32 9 2 C5.7 2.66 2.4 3.32 -1 4 C-0.67 2.68 -0.34 1.36 0 0 Z " fill="#F6C212" transform="translate(596,51)"/>
<path d="M0 0 C0 3 0 3 -1.4375 4.5 C-1.953125 4.995 -2.46875 5.49 -3 6 C-3.33 6.99 -3.66 7.98 -4 9 C-7.0625 10.1875 -7.0625 10.1875 -10 11 C-6.79239749 7.19364503 -3.59253891 3.45436433 0 0 Z " fill="#F6CD42" transform="translate(175,215)"/>
<path d="M0 0 C1.21065165 3.63195496 0.62784815 5.06531629 -0.4375 8.6875 C-0.86869141 10.17830078 -0.86869141 10.17830078 -1.30859375 11.69921875 C-1.53675781 12.45847656 -1.76492188 13.21773437 -2 14 C-2.33 14 -2.66 14 -3 14 C-3 10.7 -3 7.4 -3 4 C-2.34 4 -1.68 4 -1 4 C-0.67 2.68 -0.34 1.36 0 0 Z " fill="#F4C125" transform="translate(284,172)"/>
<path d="M0 0 C0.66 0 1.32 0 2 0 C3.06775224 1.96466413 4.06553465 3.96855359 5 6 C4.67 6.66 4.34 7.32 4 8 C1.69 6.35 -0.62 4.7 -3 3 C-2.01 2.01 -1.02 1.02 0 0 Z " fill="#F6C523" transform="translate(488,62)"/>
<path d="M0 0 C0 0.99 0 1.98 0 3 C1.65 3.33 3.3 3.66 5 4 C1.73454239 5.88391785 -1.28111761 6.49287967 -5 7 C-3.47793991 4.37098712 -2.15634036 2.15634036 0 0 Z " fill="#F2C330" transform="translate(180,277)"/>
<path d="M0 0 C5.445 1.485 5.445 1.485 11 3 C11 3.33 11 3.66 11 4 C7.66666667 4 4.33333333 4 1 4 C0.67 2.68 0.34 1.36 0 0 Z " fill="#F1C21E" transform="translate(170,163)"/>
<path d="M0 0 C0.66 0.99 1.32 1.98 2 3 C0.29171079 5.10633718 -0.52148416 5.93801608 -3.26171875 6.29296875 C-4.06222656 6.25816406 -4.86273437 6.22335938 -5.6875 6.1875 C-6.49574219 6.16042969 -7.30398438 6.13335937 -8.13671875 6.10546875 C-8.75160156 6.07066406 -9.36648438 6.03585938 -10 6 C-6.55549263 3.70366176 -4.06187717 3.45983515 0 3 C0 2.01 0 1.02 0 0 Z " fill="#F1CB61" transform="translate(756,157)"/>
<path d="M0 0 C0.66 0 1.32 0 2 0 C3.37432457 3.81756824 2.67975039 7.07255329 2 11 C1.34 11 0.68 11 0 11 C0 7.37 0 3.74 0 0 Z " fill="#F7BE05" transform="translate(675,147)"/>
<path d="M0 0 C2.31 0 4.62 0 7 0 C7 0.66 7 1.32 7 2 C8.32 2 9.64 2 11 2 C11 2.66 11 3.32 11 4 C7.37 3.34 3.74 2.68 0 2 C0 1.34 0 0.68 0 0 Z " fill="#F4C51E" transform="translate(555,51)"/>
<path d="M0 0 C0 1.65 0 3.3 0 5 C-0.99 5 -1.98 5 -3 5 C-3 4.34 -3 3.68 -3 3 C-5.31 3.33 -7.62 3.66 -10 4 C-4 0 -4 0 0 0 Z " fill="#F5C71F" transform="translate(93,9)"/>
<path d="M0 0 C1.32 0.66 2.64 1.32 4 2 C1.03 4.475 1.03 4.475 -2 7 C-2.125 4.625 -2.125 4.625 -2 2 C-1.34 1.34 -0.68 0.68 0 0 Z " fill="#F4BF22" transform="translate(148,258)"/>
<path d="M0 0 C2.31 0.33 4.62 0.66 7 1 C2.25 5.875 2.25 5.875 0 7 C0 4.69 0 2.38 0 0 Z " fill="#F1C422" transform="translate(130,216)"/>
<path d="M0 0 C0.66 0.33 1.32 0.66 2 1 C-0.97 3.64 -3.94 6.28 -7 9 C-7.33 8.34 -7.66 7.68 -8 7 C-7.67 6.34 -7.34 5.68 -7 5 C-6.34 5 -5.68 5 -5 5 C-5 4.34 -5 3.68 -5 3 C-2.625 1.3125 -2.625 1.3125 0 0 Z " fill="#F1C132" transform="translate(150,204)"/>
<path d="M0 0 C0 1.65 0 3.3 0 5 C-0.99 5 -1.98 5 -3 5 C-4.6875 2.5 -4.6875 2.5 -6 0 C-2.25 -1.125 -2.25 -1.125 0 0 Z " fill="#F7C029" transform="translate(822,154)"/>
<path d="M0 0 C0.66 0.33 1.32 0.66 2 1 C-0.78999451 4.48749314 -3.25235831 7.50157221 -7 10 C-7.66 9.67 -8.32 9.34 -9 9 C-6.03 6.03 -3.06 3.06 0 0 Z " fill="#EEC428" transform="translate(147,137)"/>
<path d="M0 0 C2.97 0.99 5.94 1.98 9 3 C9 3.33 9 3.66 9 4 C5.7 4 2.4 4 -1 4 C-0.67 2.68 -0.34 1.36 0 0 Z " fill="#F6C82B" transform="translate(786,129)"/>
<path d="M0 0 C-1.45537568 0.83848804 -2.91440373 1.67063934 -4.375 2.5 C-5.59316406 3.19609375 -5.59316406 3.19609375 -6.8359375 3.90625 C-9 5 -9 5 -11 5 C-11 4.34 -11 3.68 -11 3 C-10.34 3 -9.68 3 -9 3 C-9 2.34 -9 1.68 -9 1 C-5.47051709 -0.66670026 -3.71727674 -1.13583456 0 0 Z " fill="#F5C025" transform="translate(192,128)"/>
<path d="M0 0 C1.61949011 2.57213134 2.04408751 3.67669159 1.625 6.75 C1.41875 7.4925 1.2125 8.235 1 9 C0.01 9.33 -0.98 9.66 -2 10 C-1.54177532 6.53058454 -1.10868317 3.32604951 0 0 Z " fill="#F8C01A" transform="translate(6,99)"/>
<path d="M0 0 C4.08378283 0.74250597 8.01939223 1.82923301 12 3 C12 3.33 12 3.66 12 4 C7.545 4.495 7.545 4.495 3 5 C2.67 4.01 2.34 3.02 2 2 C1.34 1.34 0.68 0.68 0 0 Z " fill="#F3C025" transform="translate(749,227)"/>
<path d="M0 0 C1.14926266 0.95421808 2.29430541 1.91352045 3.4375 2.875 C4.07558594 3.40867188 4.71367187 3.94234375 5.37109375 4.4921875 C7 6 7 6 8 8 C6.35 8 4.7 8 3 8 C1.92474806 5.34771188 0.90543849 2.71631546 0 0 Z " fill="#F0C330" transform="translate(377,205)"/>
<path d="M0 0 C0.66 0 1.32 0 2 0 C2.33 3.63 2.66 7.26 3 11 C0.99118063 7.98677094 -0.03927918 5.47337526 -1 2 C-0.67 1.34 -0.34 0.68 0 0 Z " fill="#F5C021" transform="translate(826,175)"/>
<path d="M0 0 C0.12375 0.639375 0.2475 1.27875 0.375 1.9375 C0.684375 2.9584375 0.684375 2.9584375 1 4 C1.66 4.33 2.32 4.66 3 5 C-0.13498292 6.85776765 -2.37471432 7.20140476 -6 7 C-6 6.34 -6 5.68 -6 5 C-4.35 4.67 -2.7 4.34 -1 4 C-0.67 2.68 -0.34 1.36 0 0 Z " fill="#EEC943" transform="translate(371,147)"/>
<path d="M0 0 C1.79068573 2.6860286 2.66055791 4.6626589 3.625 7.6875 C3.88539063 8.49574219 4.14578125 9.30398437 4.4140625 10.13671875 C4.60742188 10.75160156 4.80078125 11.36648437 5 12 C3.68 12 2.36 12 1 12 C1.020625 11.13375 1.04125 10.2675 1.0625 9.375 C1.00261044 6.14096352 0.60419067 3.17200103 0 0 Z " fill="#F0BD3F" transform="translate(826,65)"/>
<path d="M0 0 C0.33 0.66 0.66 1.32 1 2 C0.67 2.66 0.34 3.32 0 4 C-0.66 4 -1.32 4 -2 4 C-2 4.66 -2 5.32 -2 6 C-3.65 6.33 -5.3 6.66 -7 7 C-2.25 1.125 -2.25 1.125 0 0 Z " fill="#EFC42A" transform="translate(371,71)"/>
<path d="M0 0 C2.375 0.1875 2.375 0.1875 5 1 C6.59660706 3.88909849 7 5.69058796 7 9 C6.34 9 5.68 9 5 9 C4.731875 8.236875 4.46375 7.47375 4.1875 6.6875 C3.04879949 4.11044096 2.04475081 2.85886437 0 1 C0 0.67 0 0.34 0 0 Z " fill="#EEC631" transform="translate(496,58)"/>
<path d="M0 0 C0.33 1.32 0.66 2.64 1 4 C2.32 4.33 3.64 4.66 5 5 C3 6 3 6 1.0546875 5.44140625 C0.33539063 5.15136719 -0.38390625 4.86132812 -1.125 4.5625 C-1.84945313 4.27503906 -2.57390625 3.98757812 -3.3203125 3.69140625 C-4.15175781 3.34916016 -4.15175781 3.34916016 -5 3 C-3 1 -3 1 0 0 Z " fill="#F7C021" transform="translate(474,55)"/>
<path d="M0 0 C2.33294775 -0.04241723 4.66702567 -0.04092937 7 0 C8 1 8 1 8.0625 3.5625 C8.041875 4.366875 8.02125 5.17125 8 6 C6.66402348 5.19185349 5.331275 4.37836819 4 3.5625 C3.2575 3.11003906 2.515 2.65757812 1.75 2.19140625 C1.1725 1.79824219 0.595 1.40507812 0 1 C0 0.67 0 0.34 0 0 Z " fill="#F4C425" transform="translate(191,181)"/>
<path d="M0 0 C0.66 0.33 1.32 0.66 2 1 C-0.25 3.5 -0.25 3.5 -3 6 C-4.32 6 -5.64 6 -7 6 C-7 5.34 -7 4.68 -7 4 C-5.824375 3.566875 -5.824375 3.566875 -4.625 3.125 C-1.90328368 2.15087746 -1.90328368 2.15087746 0 0 Z " fill="#F0CE62" transform="translate(569,157)"/>
<path d="M0 0 C0.33 0.99 0.66 1.98 1 3 C-1.21934164 6.32901247 -2.34683329 6.75023244 -6 8 C-4.55746343 4.63408134 -2.66735273 2.48952921 0 0 Z " fill="#F0C32A" transform="translate(363,78)"/>
<path d="M0 0 C2.64 0.33 5.28 0.66 8 1 C4.71536341 3.18975773 1.79303725 3.99806563 -2 5 C-1.34 3.35 -0.68 1.7 0 0 Z " fill="#F1C429" transform="translate(414,54)"/>
<path d="M0 0 C0.66 0.33 1.32 0.66 2 1 C0.35 3.64 -1.3 6.28 -3 9 C-3.33 8.01 -3.66 7.02 -4 6 C-3.34 6 -2.68 6 -2 6 C-2 4.35 -2 2.7 -2 1 C-1.34 0.67 -0.68 0.34 0 0 Z " fill="#EEC534" transform="translate(271,208)"/>
<path d="M0 0 C0.99 0 1.98 0 3 0 C2.67 2.97 2.34 5.94 2 9 C1.34 8.67 0.68 8.34 0 8 C0 5.36 0 2.72 0 0 Z " fill="#F3C11B" transform="translate(362,152)"/>
<path d="M0 0 C7.75 -0.125 7.75 -0.125 10 1 C9.67 1.66 9.34 2.32 9 3 C6.03 2.67 3.06 2.34 0 2 C0 1.34 0 0.68 0 0 Z " fill="#EDBD37" transform="translate(428,143)"/>
<path d="M0 0 C4.455 1.98 4.455 1.98 9 4 C5 6 5 6 3 6 C3 5.01 3 4.02 3 3 C2.01 3 1.02 3 0 3 C0 2.01 0 1.02 0 0 Z " fill="#F2C322" transform="translate(759,118)"/>
<path d="M0 0 C2.875 0.6875 2.875 0.6875 6 2 C7.375 4.625 7.375 4.625 8 7 C6.66382648 6.02471263 5.3311249 5.04466681 4 4.0625 C3.2575 3.51722656 2.515 2.97195312 1.75 2.41015625 C1.1725 1.94480469 0.595 1.47945313 0 1 C0 0.67 0 0.34 0 0 Z " fill="#F1C830" transform="translate(494,70)"/>
<path d="M0 0 C0.33 0 0.66 0 1 0 C1.33 2.64 1.66 5.28 2 8 C0.35 7.67 -1.3 7.34 -3 7 C-2.01 4.69 -1.02 2.38 0 0 Z " fill="#F2BF23" transform="translate(568,228)"/>
<path d="M0 0 C2.475 0.99 2.475 0.99 5 2 C3.35 3.65 1.7 5.3 0 7 C0 4.69 0 2.38 0 0 Z " fill="#EEC31F" transform="translate(250,233)"/>
<path d="M0 0 C1.65 0 3.3 0 5 0 C0.375 4.875 0.375 4.875 -3 6 C-3 5.34 -3 4.68 -3 4 C-2.34 4 -1.68 4 -1 4 C-0.67 2.68 -0.34 1.36 0 0 Z " fill="#F2C527" transform="translate(125,223)"/>
<path d="M0 0 C2.125 0.9375 2.125 0.9375 4 2 C2.35 3.32 0.7 4.64 -1 6 C-1.33 4.35 -1.66 2.7 -2 1 C-1.34 0.67 -0.68 0.34 0 0 Z " fill="#F0C11B" transform="translate(826,218)"/>
<path d="M0 0 C0.99 0.33 1.98 0.66 3 1 C0.44931155 3.35448165 -0.71017358 3.98327924 -4.25 4.1875 C-5.1575 4.125625 -6.065 4.06375 -7 4 C-6.67 3.34 -6.34 2.68 -6 2 C-4.34178227 1.62690101 -2.67422986 1.29299023 -1 1 C-0.67 0.67 -0.34 0.34 0 0 Z " fill="#EBCC5A" transform="translate(819,159)"/>
<path d="M0 0 C2.31 0 4.62 0 7 0 C7 0.66 7 1.32 7 2 C6.34 2 5.68 2 5 2 C5 2.66 5 3.32 5 4 C1.125 2.25 1.125 2.25 0 0 Z " fill="#F8C52A" transform="translate(754,143)"/>
<path d="M0 0 C2.0625 0.4375 2.0625 0.4375 4 1 C1.03 3.475 1.03 3.475 -2 6 C-1.125 1.125 -1.125 1.125 0 0 Z " fill="#F3BE26" transform="translate(382,76)"/>
<path d="M0 0 C0 0.99 0 1.98 0 3 C-4.29 2.67 -8.58 2.34 -13 2 C-13 1.67 -13 1.34 -13 1 C-11.20843648 0.83222817 -9.4167455 0.66581706 -7.625 0.5 C-6.62726563 0.4071875 -5.62953125 0.314375 -4.6015625 0.21875 C-2 0 -2 0 0 0 Z " fill="#F1C93A" transform="translate(121,67)"/>
<path d="M0 0 C0.66 0.33 1.32 0.66 2 1 C0.6875 2.5 0.6875 2.5 -1 4 C-1.99 4 -2.98 4 -4 4 C-4 4.66 -4 5.32 -4 6 C-4.66 5.67 -5.32 5.34 -6 5 C-3.375 1.125 -3.375 1.125 0 0 Z " fill="#F6C623" transform="translate(187,271)"/>
<path d="M0 0 C2.31 0.66 4.62 1.32 7 2 C6.01 2.99 5.02 3.98 4 5 C3.34 4.67 2.68 4.34 2 4 C2 3.34 2 2.68 2 2 C1.34 2 0.68 2 0 2 C0 1.34 0 0.68 0 0 Z " fill="#F8BE19" transform="translate(134,268)"/>
<path d="M0 0 C2.31 0.66 4.62 1.32 7 2 C7.33 3.32 7.66 4.64 8 6 C4.63408134 4.55746343 2.48952921 2.66735273 0 0 Z " fill="#EEC82C" transform="translate(48,251)"/>
<path d="M0 0 C0.66 0.33 1.32 0.66 2 1 C0.71034824 2.37562854 -0.62689293 3.70766393 -2 5 C-2.66 5 -3.32 5 -4 5 C-4.33 4.01 -4.66 3.02 -5 2 C-2.625 0.9375 -2.625 0.9375 0 0 Z " fill="#EFBF2A" transform="translate(238,250)"/>
<path d="M0 0 C1.65 0 3.3 0 5 0 C3.35 1.65 1.7 3.3 0 5 C-0.33 4.01 -0.66 3.02 -1 2 C-0.67 1.34 -0.34 0.68 0 0 Z " fill="#F5C01B" transform="translate(98,244)"/>
<path d="M0 0 C0 3.93169105 -1.39419615 5.16427228 -4 8 C-4.66 8 -5.32 8 -6 8 C-4.55746343 4.63408134 -2.66735273 2.48952921 0 0 Z " fill="#F2C22F" transform="translate(237,212)"/>
<path d="M0 0 C1.5 1.0625 1.5 1.0625 3 3 C3.1875 6.6875 3.1875 6.6875 3 10 C0.70366176 6.55549263 0.45983515 4.06187717 0 0 Z " fill="#F5BB28" transform="translate(4,178)"/>
<path d="M0 0 C3.63 0 7.26 0 11 0 C11 0.33 11 0.66 11 1 C8.36 1 5.72 1 3 1 C2.67 1.99 2.34 2.98 2 4 C1.34 2.68 0.68 1.36 0 0 Z " fill="#EFCC46" transform="translate(821,172)"/>
<path d="M0 0 C0.99 0.33 1.98 0.66 3 1 C3 3.64 3 6.28 3 9 C2.34 9 1.68 9 1 9 C0.67 6.03 0.34 3.06 0 0 Z " fill="#F7BF17" transform="translate(689,146)"/>
<path d="M0 0 C1.98 0 3.96 0 6 0 C5.67 1.32 5.34 2.64 5 4 C4.01 4 3.02 4 2 4 C1.34 2.68 0.68 1.36 0 0 Z " fill="#F5BD20" transform="translate(359,143)"/>
<path d="M0 0 C2.97 0.495 2.97 0.495 6 1 C5.67 3.31 5.34 5.62 5 8 C2.74754119 5.31158141 1.11786042 3.35358125 0 0 Z " fill="#F3C836" transform="translate(737,121)"/>
<path d="M0 0 C0.625 1.875 0.625 1.875 1 4 C0.34 4.66 -0.32 5.32 -1 6 C-3.125 5.625 -3.125 5.625 -5 5 C-3.35 3.35 -1.7 1.7 0 0 Z " fill="#F2BE28" transform="translate(44,39)"/>
</svg>
